<svg enable-background="new 0 0 243.784 202.432" height="202.432" viewBox="0 0 243.784 202.432" width="243.784" xmlns="http://www.w3.org/2000/svg" xmlns:xlink="http://www.w3.org/1999/xlink"><clipPath id="a"><path d="m0 0h243.784v269.6h-243.784z"/></clipPath><clipPath id="b"><path d="m91.704 147.951v35.25c0 4.749 1.658 9.14 4.388 12.657 1.882 2.425 5.571 2.581 7.581.259 3.344-3.862 8.328-9.093 13.818-9.093 5.582 0 10.621 5.316 13.958 9.296 2.007 2.394 5.643 2.464 7.641.062 2.994-3.602 4.842-8.194 4.842-13.181v-35.139c0-14.394-11.776-26.17-26.169-26.17-14.333 0-26.059 11.726-26.059 26.059"/></clipPath><clipPath id="c"><path d="m91.704 146.951v35.25c0 4.749 1.658 9.14 4.388 12.657 1.882 2.425 5.571 2.581 7.581.259 3.344-3.862 8.328-9.093 13.818-9.093 5.582 0 10.621 5.316 13.958 9.296 2.007 2.394 5.643 2.464 7.641.062 2.994-3.601 4.842-8.194 4.842-13.181v-35.139c0-14.393-11.776-26.17-26.169-26.17-14.333 0-26.059 11.726-26.059 26.059"/></clipPath><clipPath id="d"><path d="m0 0h243.784v269.6h-243.784z"/></clipPath><clipPath id="e"><path d="m91.834 95.489c0-14.517 11.811-26.327 26.327-26.327 14.517 0 26.328 11.81 26.328 26.327 0 14.516-11.812 26.326-26.328 26.326s-26.327-11.81-26.327-26.326m-3 0c0 16.17 13.156 29.326 29.327 29.326s29.327-13.156 29.327-29.326c0-16.172-13.156-29.327-29.327-29.327s-29.327 13.155-29.327 29.327"/></clipPath><clipPath id="f"><path d="m0 0h243.784v269.6h-243.784z"/></clipPath><path clip-path="url(#a)" d="m172.308 182.544v-41.524c0-16.882 10.95-30.695 24.333-30.695 13.44 0 24.438 13.872 24.438 30.827v41.393c0 5.873-1.727 11.284-4.521 15.525-1.865 2.829-5.261 2.747-7.135-.072-3.116-4.688-7.821-10.95-13.035-10.95-5.125 0-9.779 6.161-12.901 10.712-1.878 2.734-5.321 2.551-7.079-.306-2.552-4.145-4.1-9.316-4.1-14.91" fill="#fff"/><path clip-path="url(#a)" d="m213.046 201.92c-1.996 0-3.853-1.074-5.096-2.944-2.899-4.362-7.249-10.161-11.563-10.161-4.095 0-8.269 5.314-11.446 9.943-1.184 1.726-2.957 2.715-4.867 2.715-2.048 0-3.98-1.156-5.173-3.094-2.853-4.639-4.359-10.114-4.359-15.835v-41.523c0-17.9 11.708-32.463 26.1-32.463 14.449 0 26.204 14.622 26.204 32.594v41.393c0 5.93-1.709 11.789-4.812 16.497-1.206 1.83-3.024 2.878-4.988 2.878m-16.659-16.639c5.945 0 10.875 6.274 14.506 11.739 1.135 1.706 3.075 1.767 4.188.077 2.728-4.137 4.229-9.306 4.229-14.553v-41.393c0-16.024-10.17-29.06-22.67-29.06-12.442 0-22.565 12.978-22.565 28.929v41.523c0 5.067 1.325 9.902 3.835 13.982 1.049 1.706 3.014 1.841 4.116.232 3.897-5.674 8.65-11.476 14.361-11.476" fill="#59dbd5"/><path clip-path="url(#a)" d="m219.5 147.015h-46" fill="#fff"/><path clip-path="url(#a)" d="m171.868 147.015c0-.976.546-1.5 1.218-1.5h46.284c.673 0 1.218.524 1.218 1.5 0 .975-.545 1.5-1.218 1.5h-46.284c-.672 0-1.218-.525-1.218-1.5" fill="#59dbd5"/><path clip-path="url(#a)" d="m171.868 147.015c0-.976.546-1.5 1.218-1.5h46.284c.673 0 1.218.524 1.218 1.5 0 .975-.545 1.5-1.218 1.5h-46.284c-.672 0-1.218-.525-1.218-1.5z" fill="none" stroke="#59dbd5" stroke-miterlimit="10"/><path clip-path="url(#a)" d="m1.389 62.688.111-.075v.402h.245l27.771-18.863c3.971-2.698 8.661-4.137 13.462-4.137h11.386l.072-.299.008-.243.112-.025.055-.069.156.342.177.294h-.091l33.647 22.506v83.494h-68v-67.397-.078 67.475h-13.163c-3.163 0-5.837-2.897-5.837-6.061v-76.635z" fill="#fff"/><g fill="none" stroke="#59dbd5" stroke-miterlimit="10" stroke-width="3"><path clip-path="url(#a)" d="m7.337 146.681h12.996v-83.16h-18.723v77.433c0 3.164 2.564 5.727 5.727 5.727z" stroke-linecap="round" stroke-linejoin="round"/><path clip-path="url(#a)" d="m88.277 63.521-33.667-23.173-34.277 23.173" stroke-linecap="round" stroke-linejoin="round"/><path clip-path="url(#a)" d="m54.944 40.515h-11.966c-4.8 0-9.491 1.442-13.462 4.14l-28.016 19.033" stroke-linecap="round" stroke-linejoin="round"/><path clip-path="url(#a)" d="m54 34.015v14" stroke-linecap="round" stroke-linejoin="round"/><path clip-path="url(#a)" d="m87.5 69.515h-66" stroke-linecap="round" stroke-linejoin="round"/><path clip-path="url(#a)" d="m87.5 105.515h-67" stroke-linecap="round" stroke-linejoin="round"/><path clip-path="url(#a)" d="m87.5 111.515h-67" stroke-linecap="round" stroke-linejoin="round"/></g><g fill="#efeeed"><path clip-path="url(#a)" d="m65.295 146.265h14.75v-18.875c0-4.073-3.302-7.375-7.375-7.375s-7.375 3.302-7.375 7.375z"/><path clip-path="url(#a)" d="m51.78 141.265h4.328c.738 0 1.336-.599 1.336-1.336v-18.079c0-.738-.598-1.336-1.336-1.336h-4.328c-.738 0-1.336.598-1.336 1.336v18.079c0 .738.598 1.336 1.336 1.336"/><path clip-path="url(#a)" d="m41.155 141.265h4.328c.738 0 1.336-.599 1.336-1.336v-18.079c0-.738-.598-1.336-1.336-1.336h-4.328c-.738 0-1.336.598-1.336 1.336v18.079c0 .738.598 1.336 1.336 1.336"/><path clip-path="url(#a)" d="m30.53 141.265h4.328c.738 0 1.336-.599 1.336-1.336v-18.079c0-.738-.598-1.336-1.336-1.336h-4.328c-.738 0-1.336.598-1.336 1.336v18.079c0 .738.598 1.336 1.336 1.336"/><path clip-path="url(#a)" d="m51.78 98.765h4.328c.738 0 1.336-.598 1.336-1.336v-18.078c0-.738-.598-1.336-1.336-1.336h-4.328c-.738 0-1.336.598-1.336 1.336v18.078c0 .738.598 1.336 1.336 1.336"/><path clip-path="url(#a)" d="m67.083 98.765h11.174c.738 0 1.336-.598 1.336-1.336v-18.078c0-.738-.598-1.336-1.336-1.336h-11.174c-.738 0-1.336.598-1.336 1.336v18.078c0 .738.598 1.336 1.336 1.336"/><path clip-path="url(#a)" d="m41.155 98.765h4.328c.738 0 1.336-.598 1.336-1.336v-18.078c0-.738-.598-1.336-1.336-1.336h-4.328c-.738 0-1.336.598-1.336 1.336v18.078c0 .738.598 1.336 1.336 1.336"/><path clip-path="url(#a)" d="m30.53 98.765h4.328c.738 0 1.336-.598 1.336-1.336v-18.078c0-.738-.598-1.336-1.336-1.336h-4.328c-.738 0-1.336.598-1.336 1.336v18.078c0 .738.598 1.336 1.336 1.336"/></g><path d="m20.611 63.521h67.667v83.16h-67.667z" style="fill:none;stroke:#59dbd5;stroke-width:3;stroke-linecap:round;stroke-linejoin:round;stroke-miterlimit:10;clip-path:url(#a)"/><path clip-path="url(#a)" d="m88.5 170.015v-115" fill="#fff"/><path clip-path="url(#a)" d="m89 171.515c-.828 0-1.5-.672-1.5-1.5v-115c0-.828.672-1.5 1.5-1.5s1.5.672 1.5 1.5v115c0 .828-.672 1.5-1.5 1.5" fill="#59dbd5"/><path clip-path="url(#a)" d="m137.301 99.015h-.463-11.371c-1.269 0-2.298.464-2.298 1.501 0 1.035 1.029 1.499 2.298 1.499h2.284c-.322 1-1.25.145-1.25.907v20.771c0 .299.361.601.387.906.318 3.9 7.115 7.062 11.89 7.345 5.676.335 9.724-3.326 9.724-7.891v-.014c0-.591.183-.996-.522-.868-.551.099-1.641.075-2.231-.119-.956-.31-2.246-1.03-2.246-1.846v-18.284c0-3.261-1.699-3.907-5.694-3.907h-.503z" fill="#efeeed"/><path clip-path="url(#a)" d="m139.87 133.464c-.267 0-.534-.007-.806-.024-5.332-.316-13.018-3.786-13.423-8.719-.006-.076-.025-.148-.04-.22-.043-.206-.102-.487-.102-.809l-.033-20.678c-2.624 0-3.799-1.506-3.799-2.999 0-1.494 1.175-3.001 3.799-3.001h12.34c5.104 0 7.693 1.987 7.693 5.907v18.106c.15.151.543.422 1.086.597.158.052.491.103.891.103.182 0 .354-.009.487-.033.186-.033.353-.047.501-.047.478 0 2.035.172 2.035 2.392.001 5.292-4.668 9.425-10.629 9.425m-11.37-30.276v20.505c.005.057.023.127.038.197.041.195.078.392.094.59.227 2.761 6.169 5.703 10.609 5.967 4.366.238 7.824-2.236 8.221-5.719-.399-.001-1.15-.035-1.807-.251-1.522-.494-3.155-1.614-3.155-3.271v-18.284c0-1.532-.359-2.907-4.693-2.907h-12.34 4.344l-.632 1.96c-.189.586-.43.944-.679 1.213" fill="#59dbd5"/><path clip-path="url(#a)" d="m91.704 183.202v-35.252c0-14.332 11.726-26.058 26.058-26.058 14.394 0 26.17 11.776 26.17 26.17v35.14c0 4.985-1.848 9.579-4.842 13.18-1.997 2.401-5.634 2.333-7.642-.062-3.336-3.979-8.375-9.296-13.958-9.296-5.489 0-10.473 5.23-13.818 9.094-2.01 2.321-5.698 2.165-7.581-.261-2.728-3.517-4.387-7.907-4.387-12.655" fill="#fff"/><path clip-path="url(#a)" d="m135.33 199.65c-1.937 0-3.77-.862-5.03-2.365-3.152-3.761-7.91-8.76-12.81-8.76-4.662 0-9.227 4.582-12.684 8.573-1.194 1.382-2.939 2.172-4.787 2.172-2.019 0-3.883-.907-5.112-2.492-3.077-3.967-4.704-8.66-4.704-13.576v-35.251c0-15.196 12.362-27.558 27.558-27.558 15.257 0 27.67 12.412 27.67 27.668v35.141c0 5.094-1.843 10.115-5.188 14.138-1.22 1.467-3.011 2.31-4.913 2.31m-17.84-14.125c6.086 0 11.271 5.255 15.108 9.832.688.82 1.685 1.293 2.731 1.293 1.022 0 1.948-.437 2.606-1.229 2.898-3.486 4.495-7.826 4.495-12.22v-35.141c0-13.602-11.066-24.668-24.67-24.668-13.542 0-24.558 11.017-24.558 24.558v35.251c0 4.243 1.408 8.302 4.074 11.736.657.848 1.656 1.332 2.742 1.332.991 0 1.886-.402 2.52-1.135 4.115-4.752 9.109-9.609 14.952-9.609" fill="#59dbd5"/><path clip-path="url(#b)" d="m113.875 123.415s31.292-4.042 16.292 80.292c-26.813 150.745 17.666-4.334 17.666-4.334l.667-67.333-11-8.333" fill="#efeeed"/><path clip-path="url(#c)" d="m122.815 134.717h-9.308c-3.71 0-6.746-3.036-6.746-6.747v-9.307c0-3.711 3.036-6.747 6.746-6.747h9.308c3.711 0 6.747 3.036 6.747 6.747v9.307c.001 3.711-3.036 6.747-6.747 6.747" fill="#fff"/><path clip-path="url(#c)" d="m122.815 136.217h-9.308c-4.548 0-8.247-3.699-8.247-8.247v-9.308c0-4.548 3.699-8.247 8.247-8.247h9.308c4.548 0 8.247 3.699 8.247 8.247v9.308c.001 4.548-3.699 8.247-8.247 8.247m-9.307-22.802c-2.894 0-5.247 2.354-5.247 5.247v9.308c0 2.893 2.353 5.247 5.247 5.247h9.308c2.894 0 5.247-2.354 5.247-5.247v-9.308c0-2.893-2.354-5.247-5.247-5.247z" fill="#59dbd5"/><path clip-path="url(#c)" d="m122.815 134.717h-9.308c-3.71 0-6.746-3.036-6.746-6.747v-9.307c0-3.711 3.036-6.747 6.746-6.747h9.308c3.711 0 6.747 3.036 6.747 6.747v9.307c.001 3.711-3.036 6.747-6.747 6.747" fill="#fff"/><path clip-path="url(#c)" d="m122.815 136.217h-9.308c-4.548 0-8.247-3.699-8.247-8.247v-9.308c0-4.548 3.699-8.247 8.247-8.247h9.308c4.548 0 8.247 3.699 8.247 8.247v9.308c.001 4.548-3.699 8.247-8.247 8.247m-9.307-22.802c-2.894 0-5.247 2.354-5.247 5.247v9.308c0 2.893 2.353 5.247 5.247 5.247h9.308c2.894 0 5.247-2.354 5.247-5.247v-9.308c0-2.893-2.354-5.247-5.247-5.247z" fill="#59dbd5"/><path clip-path="url(#d)" d="m135.33 199.65c-1.937 0-3.77-.862-5.03-2.365-3.152-3.761-7.91-8.76-12.81-8.76-4.662 0-9.227 4.582-12.684 8.573-1.194 1.382-2.939 2.172-4.787 2.172-2.019 0-3.883-.907-5.112-2.492-3.077-3.967-4.704-8.66-4.704-13.576v-35.251c0-15.196 12.362-27.558 27.558-27.558 15.257 0 27.67 12.412 27.67 27.668v35.141c0 5.094-1.843 10.115-5.188 14.138-1.22 1.467-3.011 2.31-4.913 2.31m-17.84-14.125c6.086 0 11.271 5.255 15.108 9.832.688.82 1.685 1.293 2.731 1.293 1.022 0 1.948-.437 2.606-1.229 2.898-3.486 4.495-7.826 4.495-12.22v-35.141c0-13.602-11.066-24.668-24.67-24.668-13.542 0-24.558 11.017-24.558 24.558v35.251c0 4.243 1.408 8.302 4.074 11.736.657.848 1.656 1.332 2.742 1.332.991 0 1.886-.402 2.52-1.135 4.115-4.752 9.109-9.609 14.952-9.609" fill="#59dbd5"/><path clip-path="url(#d)" d="m92.12 95.749c0 2.944-1.664 5.33-3.717 5.33s-3.718-2.386-3.718-5.33 1.665-5.33 3.718-5.33c2.053-.001 3.717 2.386 3.717 5.33" fill="#fff"/><path clip-path="url(#d)" d="m88.403 102.579c-2.926 0-5.218-3.001-5.218-6.831s2.292-6.83 5.218-6.83 5.217 3 5.217 6.83-2.291 6.831-5.217 6.831m0-10.661c-1.049 0-2.218 1.573-2.218 3.83 0 2.258 1.169 3.831 2.218 3.831s2.217-1.573 2.217-3.831c0-2.257-1.168-3.83-2.217-3.83" fill="#59dbd5"/><path clip-path="url(#d)" d="m150.478 95.749c0 2.944-1.664 5.33-3.717 5.33s-3.718-2.386-3.718-5.33 1.665-5.33 3.718-5.33 3.717 2.386 3.717 5.33" fill="#fff"/><path clip-path="url(#d)" d="m146.761 102.579c-2.926 0-5.218-3.001-5.218-6.831s2.292-6.83 5.218-6.83 5.217 3 5.217 6.83-2.291 6.831-5.217 6.831m0-10.661c-1.049 0-2.218 1.573-2.218 3.83 0 2.258 1.169 3.831 2.218 3.831s2.217-1.573 2.217-3.831c0-2.257-1.168-3.83-2.217-3.83" fill="#59dbd5"/><path clip-path="url(#d)" d="m131.349 101.742c-7.671 0-13.948-6.277-13.948-13.948v-9.822c0-7.671 6.277-13.948 13.948-13.948 7.672 0 13.948 6.277 13.948 13.948v9.822c0 7.671-6.276 13.948-13.948 13.948" fill="#efeeed"/><path clip-path="url(#d)" d="m131.35 103.243c-8.519 0-15.448-6.93-15.448-15.448v-9.822c0-8.518 6.93-15.448 15.447-15.448 8.519 0 15.448 6.93 15.448 15.448v9.822c0 8.518-6.93 15.448-15.447 15.448m0-37.719c-6.864 0-12.448 5.584-12.448 12.448v9.822c0 6.864 5.584 12.448 12.447 12.448h.001c6.863 0 12.447-5.584 12.447-12.448v-9.822c0-6.864-5.584-12.448-12.447-12.448" fill="#59dbd5"/><path clip-path="url(#d)" d="m146.049 95.588c0 15.368-12.459 27.827-27.827 27.827-15.369 0-27.827-12.459-27.827-27.827s12.458-27.827 27.827-27.827c15.368 0 27.827 12.459 27.827 27.827" fill="#fff"/><path clip-path="url(#d)" d="m118.222 124.915c-16.171 0-29.327-13.156-29.327-29.327s13.156-29.327 29.327-29.327 29.327 13.156 29.327 29.327-13.156 29.327-29.327 29.327m0-55.654c-14.517 0-26.327 11.811-26.327 26.327 0 14.517 11.81 26.327 26.327 26.327s26.327-11.81 26.327-26.327c0-14.516-11.811-26.327-26.327-26.327" fill="#59dbd5"/><path clip-path="url(#d)" d="m149.507 85.809c-2.075 2.866-2.064 4.61-4.61 4.61s-4.61-2.064-4.61-4.61 2.984-6.568 4.61-4.61c2.189 2.635 6.102 2.548 4.61 4.61" fill="#fff"/><path clip-path="url(#d)" d="m144.896 91.918c-3.369 0-6.109-2.74-6.109-6.109 0-2.558 2.332-6.63 5.095-6.63.83 0 1.601.377 2.169 1.061.729.878 1.773 1.408 2.694 1.875 1.15.584 2.237 1.135 2.529 2.345.177.728-.01 1.478-.553 2.228-.551.76-.947 1.444-1.297 2.047-.951 1.637-1.848 3.183-4.528 3.183m-1.11-9.71c-.646.274-1.999 2.153-1.999 3.601 0 1.714 1.395 3.109 3.109 3.109.891 0 1.017-.11 1.934-1.689.332-.573.738-1.272 1.287-2.055-.222-.125-.499-.267-.729-.383-1.049-.532-2.482-1.259-3.602-2.583" fill="#59dbd5"/><path clip-path="url(#d)" d="m118.962 69.192c15.368 0 25.708 10.746 26.395 25.655.709 15.352-11.026 27.136-26.395 27.136 0 0 21.259-11.027 21.259-26.396 0-15.367-21.259-26.395-21.259-26.395" fill="#efeeed"/><path clip-path="url(#d)" d="m114.772 106.381c1.119 1.119 5.733 1.081 6.899-.085" fill="#fff"/><path clip-path="url(#d)" d="m118.101 108.695c-1.786 0-3.55-.415-4.389-1.254-.586-.586-.586-1.535 0-2.121.583-.582 1.524-.585 2.109-.013.751.565 4.1.51 4.798-.08.586-.586 1.532-.582 2.117.004.586.586.582 1.539-.004 2.125-.89.891-2.774 1.339-4.631 1.339" fill="#59dbd5"/><path clip-path="url(#d)" d="m134.247 92.046s-2.27-2.448-6.209-1.816" fill="#fff"/><path clip-path="url(#d)" d="m134.247 93.546c-.398 0-.797-.158-1.091-.471-.091-.093-1.839-1.852-4.881-1.364-.813.127-1.587-.426-1.719-1.244-.131-.817.426-1.587 1.244-1.719 4.676-.747 7.432 2.153 7.546 2.278.563.608.527 1.557-.079 2.12-.288.267-.655.4-1.02.4" fill="#59dbd5"/><path clip-path="url(#d)" d="m102.5 100.015h5" fill="#fff"/><path clip-path="url(#d)" d="m107.5 101.015h-5c-.828 0-1.5-.672-1.5-1.5s.672-1.5 1.5-1.5h5c.828 0 1.5.672 1.5 1.5s-.672 1.5-1.5 1.5" fill="#59dbd5"/><path clip-path="url(#d)" d="m127.5 100.015h6" fill="#fff"/><path clip-path="url(#d)" d="m133.5 101.015h-6c-.828 0-1.5-.672-1.5-1.5s.672-1.5 1.5-1.5h6c.828 0 1.5.672 1.5 1.5s-.672 1.5-1.5 1.5" fill="#59dbd5"/><path clip-path="url(#d)" d="m118.161 124.815c-16.171 0-29.327-13.156-29.327-29.327s13.156-29.326 29.327-29.326 29.327 13.155 29.327 29.326-13.156 29.327-29.327 29.327m0-55.653c-14.517 0-26.327 11.81-26.327 26.326 0 14.517 11.81 26.327 26.327 26.327s26.327-11.81 26.327-26.327c0-14.516-11.81-26.326-26.327-26.326" fill="#59dbd5"/><path clip-path="url(#e)" d="m99.403 99.312c-17.158 0-31.118-12.938-31.118-28.841 0-15.902 13.96-28.84 31.118-28.84 17.159 0 31.119 12.938 31.119 28.84 0 15.903-13.959 28.841-31.119 28.841m0-54.681c-15.505 0-28.118 11.592-28.118 25.84 0 14.249 12.613 25.841 28.118 25.841s28.119-11.592 28.119-25.841c0-14.248-12.614-25.84-28.119-25.84" fill="#59dbd5"/><path clip-path="url(#f)" d="m90.51 89.911c4.787 1.168 24.661.959 26.075-9.175" fill="#fff"/><path clip-path="url(#f)" d="m96.213 91.889c-2.651 0-4.849-.226-6.058-.521-.804-.196-1.297-1.007-1.101-1.812.196-.804 1.008-1.299 1.812-1.102 3.487.851 15.151.804 20.963-3.142 1.936-1.314 3.005-2.878 3.272-4.782.114-.822.878-1.39 1.692-1.279.821.115 1.394.872 1.278 1.693-.384 2.754-1.918 5.058-4.556 6.85-4.663 3.165-11.919 4.095-17.302 4.095" fill="#59dbd5"/><path clip-path="url(#f)" d="m114.373 5.501c-5.354-5.354-14.901-5.163-24.706-.45-9.804-4.713-19.352-4.904-24.706.45-5.353 5.354-5.163 14.901-.45 24.706 2.393 4.977 5.947 10.02 10.542 14.614 3.721 3.722 7.737 6.761 11.774 9.053.947.538 1.895 1.034 2.84 1.489 4.977-2.393 10.02-5.947 14.615-10.542 4.594-4.594 8.148-9.637 10.541-14.614 4.713-9.805 4.904-19.352-.45-24.706" fill="#fff"/><path clip-path="url(#f)" d="m89.667 57.026-.649-.312c-5.281-2.538-10.477-6.284-15.026-10.832-4.548-4.549-8.294-9.744-10.832-15.025-5.221-10.858-4.944-20.733.74-26.417 2.905-2.905 7.023-4.44 11.912-4.44 4.265 0 9.041 1.171 13.855 3.393 4.813-2.222 9.589-3.393 13.854-3.393 4.888 0 9.007 1.535 11.911 4.44 5.685 5.684 5.962 15.559.741 26.417-2.539 5.283-6.285 10.478-10.832 15.025-4.549 4.548-9.744 8.294-15.024 10.832zm-13.855-54.026c-4.074 0-7.46 1.231-9.79 3.562-4.671 4.67-4.731 13.482-.159 22.996 2.394 4.979 5.938 9.89 10.25 14.203 4.125 4.124 8.798 7.546 13.554 9.93 4.756-2.384 9.429-5.806 13.554-9.93 4.311-4.311 7.855-9.222 10.25-14.204 4.573-9.513 4.513-18.325-.159-22.995-2.331-2.331-5.716-3.562-9.791-3.562-4.009 0-8.575 1.177-13.204 3.402l-.651.313-.65-.313c-4.629-2.225-9.196-3.402-13.204-3.402" fill="#59dbd5"/><path clip-path="url(#f)" d="m143.486 159.515h-50.495c-2.231 0-1.659 1.416-2.443 3.554l-4.781 13.046c-1.313 3.581 1.274 7.4 5.011 7.4h53.943c3.736 0 6.323-3.819 5.012-7.4l-5.733-15.1c-.784-2.139-.514-1.5-.514-1.5" fill="#fff"/><path clip-path="url(#f)" d="m144.722 185.015h-53.944c-2.246 0-4.281-1.069-5.583-2.932-1.319-1.89-1.633-4.313-.837-6.483l4.783-13.048c.181-.495.277-.955.37-1.401.26-1.249.654-3.136 3.48-3.136h49.625l.064-.089h1.756l.038.089h.089l.305.916.881 2.084h-.145l5.531 14.568c.802 2.187.488 4.61-.831 6.5-1.301 1.863-3.336 2.932-5.582 2.932m-52.101-23.973c-.057.165-.123.479-.174.723-.103.499-.233 1.119-.49 1.82l-4.782 13.048c-.465 1.269-.29 2.631.479 3.732.733 1.049 1.871 1.65 3.124 1.65h53.943c1.253 0 2.392-.602 3.124-1.65.77-1.102.944-2.464.479-3.733l-5.728-15.084c-.073-.199-.138-.376-.194-.532h-49.411c-.183-.001-.301.012-.37.026" fill="#59dbd5"/><path clip-path="url(#f)" d="m116.5 134.015v25" fill="#fff"/><path clip-path="url(#f)" d="m115.5 134.015h3v25h-3z" fill="#59dbd5"/><path clip-path="url(#f)" d="m97.5 31.015v19" fill="#fff"/><path clip-path="url(#f)" d="m98 51.515c-.828 0-1.5-.672-1.5-1.5v-19c0-.828.672-1.5 1.5-1.5s1.5.672 1.5 1.5v19c0 .828-.672 1.5-1.5 1.5" fill="#59dbd5"/><path clip-path="url(#f)" d="m103.5 31.015v13" fill="#fff"/><path clip-path="url(#f)" d="m104 45.515c-.828 0-1.5-.672-1.5-1.5v-13c0-.828.672-1.5 1.5-1.5s1.5.672 1.5 1.5v13c0 .828-.672 1.5-1.5 1.5" fill="#59dbd5"/><path clip-path="url(#f)" d="m174.413 70.596c0 3.112-1.759 5.635-3.93 5.635-2.17 0-3.929-2.523-3.929-5.635s1.759-5.635 3.929-5.635c2.171 0 3.93 2.523 3.93 5.635" fill="#fff"/><path clip-path="url(#f)" d="m170.484 77.731c-3.046 0-5.431-3.134-5.431-7.135s2.385-7.135 5.431-7.135c3.045 0 5.43 3.134 5.43 7.135s-2.385 7.135-5.43 7.135m0-11.27c-1.149 0-2.431 1.698-2.431 4.135 0 2.436 1.281 4.135 2.431 4.135 1.148 0 2.43-1.699 2.43-4.135 0-2.437-1.281-4.135-2.43-4.135" fill="#59dbd5"/><path clip-path="url(#f)" d="m226.845 70.596c0 3.112-1.759 5.635-3.93 5.635-2.17 0-3.929-2.523-3.929-5.635s1.759-5.635 3.929-5.635c2.171 0 3.93 2.523 3.93 5.635" fill="#fff"/><path clip-path="url(#f)" d="m222.916 77.731c-3.046 0-5.431-3.134-5.431-7.135s2.385-7.135 5.431-7.135c3.044 0 5.429 3.134 5.429 7.135s-2.385 7.135-5.429 7.135m0-11.27c-1.149 0-2.431 1.698-2.431 4.135 0 2.436 1.281 4.135 2.431 4.135 1.148 0 2.429-1.699 2.429-4.135 0-2.437-1.281-4.135-2.429-4.135" fill="#59dbd5"/><path clip-path="url(#f)" d="m197.182 114.531c-3.923 0-7.132-3.21-7.132-7.132v-2.532c0-3.923 3.209-7.133 7.132-7.133s7.132 3.21 7.132 7.133v2.532c-.001 3.922-3.21 7.132-7.132 7.132" fill="#fff"/><path clip-path="url(#f)" d="m197.182 116.032c-4.76 0-8.632-3.873-8.632-8.632v-2.533c0-4.759 3.872-8.632 8.632-8.632s8.632 3.873 8.632 8.632v2.533c-.001 4.759-3.873 8.632-8.632 8.632m0-16.798c-3.104 0-5.632 2.527-5.632 5.632v2.533c0 3.105 2.527 5.632 5.632 5.632s5.632-2.527 5.632-5.632v-2.533c-.001-3.104-2.527-5.632-5.632-5.632" fill="#59dbd5"/><path clip-path="url(#f)" d="m197.182 104.823c-13.131 0-23.875-10.744-23.875-23.875v-21.652c0-13.131 10.744-23.875 23.875-23.875s23.875 10.744 23.875 23.875v21.652c0 13.131-10.744 23.875-23.875 23.875" fill="#fff"/><path clip-path="url(#f)" d="m197.182 106.323c-13.992 0-25.375-11.383-25.375-25.375v-21.652c0-13.992 11.383-25.375 25.375-25.375s25.375 11.383 25.375 25.375v21.652c0 13.992-11.383 25.375-25.375 25.375m0-69.402c-12.337 0-22.375 10.037-22.375 22.375v21.652c0 12.338 10.038 22.375 22.375 22.375s22.375-10.037 22.375-22.375v-21.652c0-12.338-10.038-22.375-22.375-22.375" fill="#59dbd5"/><path clip-path="url(#f)" d="m221.5 61.944v19.084c-2 13.233-9.629 23.064-21.907 23.064-7.522 0-14.592-1.12-18.649-7.109 3.628 2.661 10.866 4.109 15.614 4.109 12.278 0 18.942-13.858 18.942-26.633v-21.076c0-4.95-.967-9.545-3.523-13.322 1.06.782 2.195 1.65 3.111 2.603 4.045 4.211 6.412 12.885 6.412 19.28" fill="#efeeed"/><path clip-path="url(#f)" d="m185.786 76.281c-.954 0-1.735-.781-1.735-1.736v-2.244c0-.955.781-1.736 1.735-1.736.955 0 1.736.781 1.736 1.736v2.244c0 .955-.781 1.736-1.736 1.736" fill="#fff"/><path clip-path="url(#f)" d="m185.787 77.782c-1.784 0-3.236-1.452-3.236-3.236v-2.244c0-1.784 1.452-3.236 3.236-3.236 1.783 0 3.235 1.452 3.235 3.236v2.244c0 1.784-1.452 3.236-3.235 3.236m0-5.717c-.125 0-.236.11-.236.236v2.244c0 .251.472.251.472 0v-2.244c-.001-.126-.111-.236-.236-.236" fill="#59dbd5"/><path clip-path="url(#f)" d="m182.414 67.77s3.688-.673 7.107-.12" fill="#fff"/><path clip-path="url(#f)" d="m182.412 69.271c-.71 0-1.342-.507-1.475-1.231-.148-.815.392-1.596 1.206-1.745.161-.029 3.982-.714 7.618-.126.817.132 1.373.902 1.241 1.72-.132.819-.901 1.372-1.721 1.242-3.13-.506-6.564.109-6.6.115-.089.017-.179.025-.269.025" fill="#59dbd5"/><path clip-path="url(#f)" d="m207.278 76.281c.954 0 1.735-.781 1.735-1.736v-2.244c0-.955-.781-1.736-1.735-1.736-.955 0-1.736.781-1.736 1.736v2.244c0 .955.781 1.736 1.736 1.736" fill="#fff"/><path clip-path="url(#f)" d="m207.278 77.782c-1.784 0-3.236-1.452-3.236-3.236v-2.244c0-1.784 1.452-3.236 3.236-3.236 1.783 0 3.235 1.452 3.235 3.236v2.244c.001 1.784-1.451 3.236-3.235 3.236m0-5.717c-.125 0-.236.11-.236.236v2.244c0 .251.472.251.472 0v-2.244c0-.126-.111-.236-.236-.236" fill="#59dbd5"/><path clip-path="url(#f)" d="m210.651 67.77s-3.688-.673-7.108-.12" fill="#fff"/><path clip-path="url(#f)" d="m210.651 69.27c-.088 0-.178-.008-.269-.024-.033-.006-3.488-.62-6.602-.116-.816.13-1.588-.423-1.72-1.241s.424-1.588 1.242-1.721c3.634-.587 7.456.098 7.616.126.814.149 1.354.93 1.206 1.744-.13.724-.762 1.232-1.473 1.232" fill="#59dbd5"/><path clip-path="url(#f)" d="m185.047 106.385-2.585 2.482c-.148.143-.244.333-.271.538l-1.24 9.786c-.098.77.759 1.296 1.401.861l4.614-3.121c.216-.146.485-.192.738-.124l1.498.399c.716.191 1.345-.516 1.07-1.205l-1.295-3.267c-.046-.115-.066-.237-.063-.361l.082-2.675c.008-.236-.078-.465-.238-.639l-2.423-2.634c-.341-.373-.923-.391-1.288-.04" fill="#fff"/><path clip-path="url(#f)" d="m181.85 121.709c-.691 0-1.351-.299-1.811-.82-.453-.514-.663-1.202-.575-1.887l1.239-9.786c.071-.545.326-1.053.721-1.431l2.584-2.482c.932-.895 2.558-.846 3.433.106l2.424 2.634c.428.467.653 1.071.633 1.701l-.079 2.552 1.251 3.151c.293.741.202 1.576-.244 2.234-.567.836-1.623 1.236-2.608.975l-1.235-.33-4.388 2.968c-.403.272-.868.415-1.345.415m1.803-11.906-1.048 8.267 3.521-2.381c.57-.387 1.298-.512 1.966-.332l.352.094-.859-2.164c-.122-.307-.179-.63-.168-.961l.075-2.431-1.845-2.006z" fill="#59dbd5"/><path clip-path="url(#f)" d="m209.18 106.385 2.585 2.482c.148.143.244.333.271.538l1.241 9.786c.097.77-.759 1.296-1.402.861l-4.614-3.121c-.216-.146-.484-.192-.737-.124l-1.498.399c-.717.191-1.346-.516-1.071-1.205l1.295-3.267c.046-.115.067-.237.063-.361l-.082-2.675c-.009-.236.077-.465.237-.639l2.423-2.634c.342-.373.924-.391 1.289-.04" fill="#fff"/><path clip-path="url(#f)" d="m212.378 121.709c-.479 0-.943-.143-1.344-.415l-4.389-2.968-1.234.329c-.983.264-2.041-.138-2.609-.974-.446-.658-.537-1.493-.244-2.234l1.251-3.152-.08-2.551c-.019-.632.206-1.237.636-1.702l2.422-2.633c.874-.952 2.499-1.004 3.433-.106l2.585 2.482c.396.379.65.887.719 1.431l1.241 9.786c.087.685-.123 1.373-.576 1.887-.46.521-1.12.82-1.811.82m-5.623-6.433c.482 0 .947.143 1.347.413l3.521 2.381-1.049-8.268-1.992-1.913-1.846 2.006.075 2.432c.01.334-.048.656-.169.961l-.857 2.163.352-.094c.201-.054.409-.081.618-.081" fill="#59dbd5"/><path clip-path="url(#f)" d="m199.634 85.743c-1.349 1.355-3.556 1.355-4.904 0l-1.142-1.146-1.086-1.092c-1.012-1.016-.107-2.518 1.516-2.518h3.163 3.165c1.623 0 2.526 1.502 1.516 2.518l-1.086 1.092z" fill="#fff"/><path clip-path="url(#f)" d="m197.182 88.26c-1.332 0-2.58-.519-3.516-1.459l-2.228-2.237c-.84-.844-1.088-2.027-.647-3.087.503-1.209 1.769-1.99 3.226-1.99h6.329c1.457 0 2.724.781 3.227 1.99.439 1.06.191 2.243-.648 3.087l-2.226 2.237c-.938.94-2.186 1.459-3.517 1.459m-3.509-5.706 2.119 2.131c.738.74 2.041.741 2.779 0l2.119-2.131c-.074-.035-.187-.067-.345-.067h-6.329c-.156 0-.268.032-.343.067" fill="#59dbd5"/><path clip-path="url(#f)" d="m197.182 106.323c-13.992 0-25.375-11.383-25.375-25.375v-21.652c0-13.992 11.383-25.375 25.375-25.375s25.375 11.383 25.375 25.375v21.652c0 13.992-11.383 25.375-25.375 25.375m0-69.402c-12.337 0-22.375 10.037-22.375 22.375v21.652c0 12.338 10.038 22.375 22.375 22.375s22.375-10.037 22.375-22.375v-21.652c0-12.338-10.038-22.375-22.375-22.375" fill="#59dbd5"/><path clip-path="url(#f)" d="m196.5 95.015v10" fill="#fff"/><path clip-path="url(#f)" d="m196 106.515c-.829 0-1.5-.671-1.5-1.5v-10c0-.829.671-1.5 1.5-1.5s1.5.671 1.5 1.5v10c0 .829-.671 1.5-1.5 1.5" fill="#59dbd5"/><path clip-path="url(#f)" d="m240.771 47.555c-.98 3.097-11.738 10.218-16.692 13.365-1.063.675-2.448-.102-2.432-1.362.014-1.029-.941-1.8-1.943-1.565-4.197.984-14.169 3.147-20.73 3.147-9.211 0-17.519-1.615-23.382-4.204-.962-.424-2.063.155-2.227 1.194-.043.272-.086.555-.129.836-.183 1.207-1.598 1.768-2.552 1.007-4.195-3.344-13.113-10.729-14.026-13.788-.694-2.338 2.023-5.401 1.805-8.247-.197-2.592-3.406-5.475-2.711-8.131.672-2.566 4.955-4.147 6.892-6.459 1.762-2.1 1.762-5.777 4.904-7.427 2.601-1.36 7.199-.249 10.933-1.153 3.012-.725 5.708-3.783 9.567-4.137 3.188-.296 7.104-3.714 10.926-3.714 3.933 0 7.506 3.423 10.773 3.735 3.969.376 6.73 3.454 9.808 4.221 3.837.963 8.529-.058 11.16 1.381 3.172 1.741 3.092 5.47 4.809 7.686 1.871 2.413 6.11 4.169 6.688 6.835.599 2.735-2.712 5.629-2.997 8.29-.308 2.914 2.323 6.088 1.556 8.49" fill="#fff"/><path clip-path="url(#f)" d="m223.234 62.669c-.821 0-1.624-.337-2.203-.924-.581-.588-.896-1.372-.885-2.206l-.08-.088c-4.107.961-14.341 3.189-21.094 3.189-9.143 0-17.662-1.538-23.987-4.331-.064-.011-.13-.009-.14.055l-.127.827c-.229 1.523-1.515 2.629-3.056 2.629-.7 0-1.361-.233-1.914-.674-8.874-7.072-13.763-11.962-14.53-14.531-.512-1.726.179-3.449.848-5.115.48-1.198.978-2.437.899-3.446-.06-.793-.637-1.843-1.194-2.859-.946-1.723-2.019-3.676-1.473-5.767.541-2.065 2.497-3.433 4.387-4.756 1.06-.741 2.153-1.507 2.808-2.287.513-.612.878-1.509 1.265-2.458.734-1.805 1.649-4.051 4.091-5.334 1.761-.919 4.001-.919 6.167-.919h.334c1.535 0 3.276 0 4.777-.364 1.063-.255 2.186-.926 3.375-1.636 1.806-1.079 3.853-2.302 6.408-2.536 1.164-.109 2.62-.814 4.162-1.561 2.09-1.012 4.458-2.159 6.9-2.159 2.517 0 4.813 1.156 6.839 2.176 1.484.746 2.886 1.451 4.077 1.566 2.625.248 4.729 1.494 6.585 2.592 1.212.718 2.357 1.395 3.443 1.666 1.543.387 3.317.422 5.034.454 2.416.047 4.698.091 6.482 1.067 2.481 1.361 3.358 3.685 4.063 5.552.366.969.712 1.885 1.212 2.531.628.809 1.688 1.619 2.715 2.403 1.863 1.422 3.789 2.892 4.252 5.033.465 2.119-.665 4.084-1.663 5.817-.599 1.041-1.218 2.117-1.308 2.949-.11 1.046.352 2.328.799 3.568.615 1.71 1.252 3.478.696 5.22-.836 2.637-6.662 7.407-17.318 14.174-.495.316-1.066.483-1.646.483m-3.168-6.218c.816 0 1.615.335 2.191.919.584.592.899 1.376.889 2.208l.088.091c.004 0 .015 0 .039-.015 11.173-7.096 15.639-11.196 16.067-12.552.247-.774-.193-1.998-.66-3.294-.535-1.485-1.141-3.168-.959-4.9.157-1.464.938-2.819 1.691-4.129.762-1.324 1.55-2.692 1.332-3.682-.23-1.065-1.71-2.195-3.142-3.288-1.179-.9-2.398-1.831-3.266-2.949-.777-1.003-1.22-2.175-1.647-3.309-.64-1.693-1.19-3.155-2.697-3.981-1.138-.622-3.063-.659-5.101-.698-1.884-.036-3.832-.074-5.704-.543-1.51-.377-2.898-1.199-4.242-1.995-1.663-.985-3.383-2.003-5.342-2.188-1.754-.168-3.476-1.034-5.142-1.873-1.812-.912-3.686-1.855-5.49-1.855-1.755 0-3.706.945-5.593 1.859-1.793.868-3.487 1.689-5.194 1.848-1.878.172-3.539 1.164-5.146 2.124-1.329.794-2.704 1.615-4.209 1.977-1.847.448-3.862.448-5.481.448h-.334c-1.72 0-3.67 0-4.774.577-1.47.771-2.042 2.178-2.705 3.807-.456 1.122-.929 2.282-1.744 3.254-.908 1.084-2.167 1.965-3.386 2.818-1.446 1.012-2.943 2.059-3.204 3.058-.245.934.488 2.271 1.199 3.563.711 1.295 1.446 2.635 1.557 4.074.131 1.705-.527 3.345-1.107 4.792-.477 1.189-.971 2.419-.756 3.142.409 1.368 4.196 5.607 13.524 13.042.055.018.122.016.133-.058l.131-.847c.237-1.506 1.521-2.599 3.05-2.599.437 0 .862.09 1.265.268 5.865 2.59 14.168 4.075 22.775 4.075 6.44 0 16.403-2.173 20.388-3.107.233-.054.47-.082.706-.082" fill="#59dbd5"/><path clip-path="url(#f)" d="m242.117 30.827c-.553-2.552-4.61-4.233-6.401-6.542-1.643-2.121-1.565-5.691-4.602-7.356-2.52-1.378-7.009-.4-10.682-1.322-.864-.215-19.192-6.982-20.04-7.457 1.53 5.523 27.324 16.397 30.229 26.702 4.037 14.318.513 16.186-9.925 22.012.913-.137 1.75.569 1.738 1.512-.017 1.206 1.309 1.949 2.326 1.303 4.741-3.012 15.038-9.827 15.978-12.792.734-2.298-1.784-5.336-1.49-8.126.274-2.547 3.443-5.316 2.869-7.934" fill="#efeeed"/><path clip-path="url(#f)" d="m223.234 62.669c-.821 0-1.624-.337-2.203-.924-.581-.588-.896-1.372-.885-2.206l-.08-.088c-4.107.961-14.341 3.189-21.094 3.189-9.143 0-17.662-1.538-23.987-4.331-.064-.011-.13-.009-.14.055l-.127.827c-.229 1.523-1.515 2.629-3.056 2.629-.7 0-1.361-.233-1.914-.674-8.874-7.072-13.763-11.962-14.53-14.531-.512-1.726.179-3.449.848-5.115.48-1.198.978-2.437.899-3.446-.06-.793-.637-1.843-1.194-2.859-.946-1.723-2.019-3.676-1.473-5.767.541-2.065 2.497-3.433 4.387-4.756 1.06-.741 2.153-1.507 2.808-2.287.513-.612.878-1.509 1.265-2.458.734-1.805 1.649-4.051 4.091-5.334 1.761-.919 4.001-.919 6.167-.919h.334c1.535 0 3.276 0 4.777-.364 1.063-.255 2.186-.926 3.375-1.636 1.806-1.079 3.853-2.302 6.408-2.536 1.164-.109 2.62-.814 4.162-1.561 2.09-1.012 4.458-2.159 6.9-2.159 2.517 0 4.813 1.156 6.839 2.176 1.484.746 2.886 1.451 4.077 1.566 2.625.248 4.729 1.494 6.585 2.592 1.212.718 2.357 1.395 3.443 1.666 1.543.387 3.317.422 5.034.454 2.416.047 4.698.091 6.482 1.067 2.481 1.361 3.358 3.685 4.063 5.552.366.969.712 1.885 1.212 2.531.628.809 1.688 1.619 2.715 2.403 1.863 1.422 3.789 2.892 4.252 5.033.465 2.119-.665 4.084-1.663 5.817-.599 1.041-1.218 2.117-1.308 2.949-.11 1.046.352 2.328.799 3.568.615 1.71 1.252 3.478.696 5.22-.836 2.637-6.662 7.407-17.318 14.174-.495.316-1.066.483-1.646.483m-3.168-6.218c.816 0 1.615.335 2.191.919.584.592.899 1.376.889 2.208l.088.091c.004 0 .015 0 .039-.015 11.173-7.096 15.639-11.196 16.067-12.552.247-.774-.193-1.998-.66-3.294-.535-1.485-1.141-3.168-.959-4.9.157-1.464.938-2.819 1.691-4.129.762-1.324 1.55-2.692 1.332-3.682-.23-1.065-1.71-2.195-3.142-3.288-1.179-.9-2.398-1.831-3.266-2.949-.777-1.003-1.22-2.175-1.647-3.309-.64-1.693-1.19-3.155-2.697-3.981-1.138-.622-3.063-.659-5.101-.698-1.884-.036-3.832-.074-5.704-.543-1.51-.377-2.898-1.199-4.242-1.995-1.663-.985-3.383-2.003-5.342-2.188-1.754-.168-3.476-1.034-5.142-1.873-1.812-.912-3.686-1.855-5.49-1.855-1.755 0-3.706.945-5.593 1.859-1.793.868-3.487 1.689-5.194 1.848-1.878.172-3.539 1.164-5.146 2.124-1.329.794-2.704 1.615-4.209 1.977-1.847.448-3.862.448-5.481.448h-.334c-1.72 0-3.67 0-4.774.577-1.47.771-2.042 2.178-2.705 3.807-.456 1.122-.929 2.282-1.744 3.254-.908 1.084-2.167 1.965-3.386 2.818-1.446 1.012-2.943 2.059-3.204 3.058-.245.934.488 2.271 1.199 3.563.711 1.295 1.446 2.635 1.557 4.074.131 1.705-.527 3.345-1.107 4.792-.477 1.189-.971 2.419-.756 3.142.409 1.368 4.196 5.607 13.524 13.042.055.018.122.016.133-.058l.131-.847c.237-1.506 1.521-2.599 3.05-2.599.437 0 .862.09 1.265.268 5.865 2.59 14.168 4.075 22.775 4.075 6.44 0 16.403-2.173 20.388-3.107.233-.054.47-.082.706-.082" fill="#59dbd5"/><path d="m193.673 147.015v22.205c0 2.924 2.37 5.295 5.295 5.295" style="fill:none;stroke:#59dbd5;stroke-width:3;stroke-linecap:round;stroke-miterlimit:10;clip-path:url(#f)"/><path d="m200.392 147.015v27.5" style="fill:none;stroke:#59dbd5;stroke-width:3;stroke-miterlimit:10;stroke-dasharray:2 1;clip-path:url(#f)"/></svg>