<svg xmlns="http://www.w3.org/2000/svg">

  <symbol id="paper-plane" viewBox="0 0 512 512">

    <path fill="currentColor" d="M476 3.2L12.5 270.6c-18.1 10.4-15.8 35.6 2.2 43.2L121 358.4l287.3-253.2c5.5-4.9 13.3 2.6 8.6 8.3L176 407v80.5c0 23.6 28.5 32.9 42.5 15.8L282 426l124.6 52.2c14.2 6 30.4-2.9 33-18.2l72-432C515 7.8 493.3-6.8 476 3.2z"></path>

  </symbol>

  <symbol id="plane" viewBox="0 0 576 512">

    <path fill="currentColor" d="M480 192H365.71L260.61 8.06A16.014 16.014 0 0 0 246.71 0h-65.5c-10.63 0-18.3 10.17-15.38 20.39L214.86 192H112l-43.2-57.6c-3.02-4.03-7.77-6.4-12.8-6.4H16.01C5.6 128-2.04 137.78.49 147.88L32 256 .49 364.12C-2.04 374.22 5.6 384 16.01 384H56c5.04 0 9.78-2.37 12.8-6.4L112 320h102.86l-49.03 171.6c-2.92 10.22 4.75 20.4 15.38 20.4h65.5c5.74 0 11.04-3.08 13.89-8.06L365.71 320H480c35.35 0 96-28.65 96-64s-60.65-64-96-64z"></path>

  </symbol>

  <symbol id="rocket" viewBox="0 0 512 512">

    <path fill="currentColor" d="M505.05 19.1a15.89 15.89 0 0 0-12.2-12.2C460.65 0 435.46 0 410.36 0c-103.2 0-165.1 55.2-211.29 128H94.87A48 48 0 0 0 52 154.49l-49.42 98.8A24 24 0 0 0 24.07 288h103.77l-22.47 22.47a32 32 0 0 0 0 45.25l50.9 50.91a32 32 0 0 0 45.26 0L224 384.16V488a24 24 0 0 0 34.7 21.49l98.7-49.39a47.91 47.91 0 0 0 26.5-42.9V312.79c72.59-46.3 128-108.4 128-211.09.1-25.2.1-50.4-6.85-82.6zM384 168a40 40 0 1 1 40-40 40 40 0 0 1-40 40z"></path>

  </symbol>

</svg>